<svg xmlns="http://www.w3.org/2000/svg" viewBox="0 0 120 138"><defs><style>.cls-1{fill:#fff;}</style></defs><g id="レイヤー_2" data-name="レイヤー 2"><g id="レイヤー_1-2" data-name="レイヤー 1"><g id="グループ_1070" data-name="グループ 1070"><g id="グループ_1069" data-name="グループ 1069"><path id="パス_191" data-name="パス 191" class="cls-1" d="M19,106.7V111a10.06,10.06,0,0,0-6.53-2.66,8.32,8.32,0,0,0-6.26,2.69,9.08,9.08,0,0,0-2.56,6.54,8.83,8.83,0,0,0,2.56,6.44,8.39,8.39,0,0,0,6.28,2.63,7.62,7.62,0,0,0,3.26-.63,9.05,9.05,0,0,0,1.56-.85A16.06,16.06,0,0,0,19,123.91v4.42a13.13,13.13,0,0,1-6.56,1.78,12.06,12.06,0,0,1-8.82-3.64A12.09,12.09,0,0,1,0,117.64a12.47,12.47,0,0,1,3.05-8.27,12,12,0,0,1,9.69-4.44A12.21,12.21,0,0,1,19,106.7Z"/><path id="パス_192" data-name="パス 192" class="cls-1" d="M22.41,108a2.31,2.31,0,0,1,2.28-2.28A2.32,2.32,0,0,1,27,108a2.26,2.26,0,0,1-.68,1.63,2.14,2.14,0,0,1-1.61.68A2.31,2.31,0,0,1,22.4,108v0Zm4,6.37v15.31H22.94V114.36Z"/><path id="パス_193" data-name="パス 193" class="cls-1" d="M30.91,114.36h3.51v1.36a6.61,6.61,0,0,1,1.72-1.39,3.9,3.9,0,0,1,1.81-.4,5.65,5.65,0,0,1,2.9.92l-1.61,3.23a3.38,3.38,0,0,0-2-.72q-2.88,0-2.88,4.37v7.94H30.9Z"/><path id="パス_194" data-name="パス 194" class="cls-1" d="M54.71,115v4.7a8.47,8.47,0,0,0-2.15-2,4.17,4.17,0,0,0-2.21-.57,4.34,4.34,0,0,0-3.29,1.4A4.94,4.94,0,0,0,45.75,122,5,5,0,0,0,47,125.57,4.27,4.27,0,0,0,50.28,127a4.55,4.55,0,0,0,2.23-.55,8.7,8.7,0,0,0,2.2-2.08V129a9.13,9.13,0,0,1-4.28,1.12,8.17,8.17,0,0,1-5.9-2.3,7.71,7.71,0,0,1-2.38-5.73,7.81,7.81,0,0,1,2.41-5.78,8.11,8.11,0,0,1,5.9-2.36A8.64,8.64,0,0,1,54.71,115Z"/><path id="パス_195" data-name="パス 195" class="cls-1" d="M61.63,103.12v26.55H58.11V103.12Z"/><path id="パス_196" data-name="パス 196" class="cls-1" d="M65.36,121.9a7.62,7.62,0,0,1,2.36-5.64A8.15,8.15,0,0,1,79.23,127.8a8,8,0,0,1-5.83,2.31,7.7,7.7,0,0,1-5.73-2.36A8,8,0,0,1,65.36,121.9ZM69,122a5.23,5.23,0,0,0,1.22,3.64,4.71,4.71,0,0,0,6.59,0,5.77,5.77,0,0,0,0-7.14,4.66,4.66,0,0,0-6.56,0A5,5,0,0,0,69,122Z"/><path id="パス_197" data-name="パス 197" class="cls-1" d="M84.59,121.9a7.61,7.61,0,0,1,2.35-5.64A8.15,8.15,0,1,1,98.46,127.8a8.06,8.06,0,0,1-5.83,2.31,7.7,7.7,0,0,1-5.73-2.36A7.94,7.94,0,0,1,84.59,121.9Zm3.59.06a5.18,5.18,0,0,0,1.22,3.64,4.71,4.71,0,0,0,6.59,0,5.8,5.8,0,0,0,0-7.14,4.66,4.66,0,0,0-6.56,0,5,5,0,0,0-1.25,3.5Z"/><path id="パス_198" data-name="パス 198" class="cls-1" d="M108.05,138h-3.52V114.36h3.52V116a6.63,6.63,0,0,1,9.88.24,9.19,9.19,0,0,1,0,11.57,6.64,6.64,0,0,1-9.4.61c-.18-.16-.34-.32-.5-.49Zm8.35-15.89a5.31,5.31,0,0,0-1.18-3.59,3.86,3.86,0,0,0-3-1.4,4,4,0,0,0-3.14,1.36,5.13,5.13,0,0,0-1.2,3.55,5.26,5.26,0,0,0,1.2,3.55,3.93,3.93,0,0,0,3.12,1.37,3.83,3.83,0,0,0,3-1.38,5,5,0,0,0,1.22-3.46Z"/></g><path class="cls-1" d="M78.81,57.43h0a26.91,26.91,0,0,1-38.23,0,27.34,27.34,0,0,1-4.07-33.25,9,9,0,0,1-8.57-6.88,38.33,38.33,0,0,0,11,52.84,37.79,37.79,0,0,0,13.59,5.53c5,1.19,5.6,2.48,3.57,6.28h0c-1.3,2.45-2.48,5.07-2.48,6.53a5.83,5.83,0,1,0,11.66,0c0-1.5-1.24-4.22-2.58-6.71-1.78-3.41-1.28-4.75,2.76-5.86a37.8,37.8,0,0,0,21-10.74,5.52,5.52,0,0,0-.07-7.75A5.44,5.44,0,0,0,78.81,57.43Z"/><path class="cls-1" d="M80.45,6.22a37.76,37.76,0,0,0-47.58,5h0a5.52,5.52,0,0,0,.07,7.75,5.44,5.44,0,0,0,7.64,0,26.9,26.9,0,0,1,38.23,0,27.34,27.34,0,0,1,4.07,33.25,9,9,0,0,1,8.57,6.88A38.33,38.33,0,0,0,80.45,6.22Z"/><path class="cls-1" d="M59.7,58A19.75,19.75,0,0,0,79.39,38.19h0A19.75,19.75,0,0,0,59.7,18.37h0A19.82,19.82,0,0,0,59.7,58Zm0-34.1A14.29,14.29,0,1,1,45.5,38.19,14.24,14.24,0,0,1,59.69,23.9Z"/></g></g></g></svg>