<svg xmlns="http://www.w3.org/2000/svg" viewBox="0 0 537.55 613.7"><g id="レイヤー_2" data-name="レイヤー 2"><g id="レイヤー_1-2" data-name="レイヤー 1"><path id="パス_364" data-name="パス 364" d="M290.08,538.41c3.35-1.07,6.76-2,10.2-2.7,133.59-15.6,237.27-129.14,237.27-266.93C537.55,120.34,417.22,0,268.78,0S0,120.34,0,268.78c0,138.16,104.25,252,238.38,267.06,13.83,2.3,23.95,9.94,17.34,24.52-5.8,10.66-11.34,22.52-11.34,28.94a24.4,24.4,0,0,0,48.8,0c0-6.42-5.55-18.28-11.35-28.94C276.8,549.26,281.45,542.17,290.08,538.41Z"/></g></g></svg>