<svg xmlns="http://www.w3.org/2000/svg" viewBox="0 0 480 548"><defs><style>.cls-1{fill:#5cebff;}</style></defs><g id="レイヤー_2" data-name="レイヤー 2"><g id="レイヤー_1-2" data-name="レイヤー 1"><path id="パス_364" data-name="パス 364" class="cls-1" d="M259,480.77a92.52,92.52,0,0,1,9.11-2.41C387.42,464.43,480,363,480,240,480,107.45,372.55,0,240,0S0,107.45,0,240C0,363.37,93.09,465,212.85,478.47c12.36,2,21.39,8.87,15.49,21.9-5.18,9.52-10.13,20.11-10.13,25.84a21.79,21.79,0,0,0,43.58,0c0-5.73-5-16.32-10.14-25.84C247.17,490.46,251.32,484.12,259,480.77Z"/></g></g></svg>