<svg xmlns="http://www.w3.org/2000/svg" viewBox="0 0 130.02 131.99"><defs><style>.cls-1{fill:#fff;}.cls-2{fill:none;}.cls-3{fill:#9bb3c4;fill-rule:evenodd;}</style></defs><g id="レイヤー_2" data-name="レイヤー 2"><g id="レイヤー_1-2" data-name="レイヤー 1"><g id="グループ_1299" data-name="グループ 1299"><ellipse id="楕円形_22" data-name="楕円形 22" class="cls-1" cx="65.01" cy="65.99" rx="65.01" ry="65.99"/><g id="グループ_1054" data-name="グループ 1054"><rect id="長方形_399" data-name="長方形 399" class="cls-2" x="32.56" y="33.97" width="65.33" height="65.33"/><path id="パス_183" data-name="パス 183" class="cls-3" d="M58.49,66.84v25a.66.66,0,0,0,.66.65h9.3a.65.65,0,0,0,.65-.65h0V66.43h6.74a.64.64,0,0,0,.65-.59l.65-7.67a.64.64,0,0,0-.59-.7H69.1V52a2.31,2.31,0,0,1,2.31-2.31H76.6a.65.65,0,0,0,.65-.65h0V41.39a.64.64,0,0,0-.65-.65H67.82a9.33,9.33,0,0,0-9.33,9.33h0v7.4H53.84a.65.65,0,0,0-.65.65h0v7.67a.64.64,0,0,0,.65.65h4.65Z"/></g></g></g></g></svg>