<svg xmlns="http://www.w3.org/2000/svg" viewBox="0 0 160.87 184.15"><defs><style>.cls-1{fill:#9bb3c4;}.cls-2{fill:#91e9ff;}</style></defs><g id="レイヤー_2" data-name="レイヤー 2"><g id="レイヤー_1-2" data-name="レイヤー 1"><g id="グループ_1287" data-name="グループ 1287"><g id="グループ_1286" data-name="グループ 1286"><path id="パス_358" data-name="パス 358" class="cls-1" d="M80.43,32.66A19.55,19.55,0,1,1,60.88,52.21,19.55,19.55,0,0,1,80.43,32.66m0-7.56a27.12,27.12,0,1,0,27.12,27.11h0A27.12,27.12,0,0,0,80.43,25.1Z"/><path id="パス_359" data-name="パス 359" class="cls-2" d="M117.37,78.54a7.5,7.5,0,0,1,0,10.61h0a51.93,51.93,0,0,1-28.72,14.61c-5.75,1.52-6.53,3.32-4.13,7.95,1.87,3.46,3.62,7.25,3.62,9.32a8,8,0,0,1-16.06.18V121c0-2,1.62-5.58,3.41-8.92h0c2.93-5.46,1.83-7.14-6-8.84h.07A52.2,52.2,0,0,1,36.7,23.64a12.43,12.43,0,0,0,11.8,9.42,37.23,37.23,0,0,0,58.26,45.48A7.5,7.5,0,0,1,117.37,78.54Zm0-63.26a52.3,52.3,0,0,0-73.88,0A7.5,7.5,0,0,0,54.1,25.88a37.23,37.23,0,0,1,58.26,45.48,12.42,12.42,0,0,1,11.8,9.42,52.33,52.33,0,0,0-6.79-65.5Z"/></g><path id="パス_360" data-name="パス 360" class="cls-1" d="M5.14,158.68a13.27,13.27,0,0,0,20.33,11.25,17.5,17.5,0,0,0,4,3.51,18.42,18.42,0,1,1,0-29.53,17.54,17.54,0,0,0-4,3.52A13.27,13.27,0,0,0,5.14,158.68Zm31,14.79h4.56V150H36.16Zm24.09-23.08a11.11,11.11,0,0,0-9.65,1.84V150H46v11.28h0v12.2H50.6v-12.2a6.73,6.73,0,0,1,5.55-6.61,15.57,15.57,0,0,1,4.1-4.27Zm100.61,10.88a11.26,11.26,0,0,1-18,9v13.84H138.3V150h4.56v2.24a11.26,11.26,0,0,1,18,9Zm-4.56,0a6.72,6.72,0,1,0-6.72,6.72h0a6.72,6.72,0,0,0,6.72-6.72Zm-87.23-5a6.74,6.74,0,0,1,4.06,1.38,9.93,9.93,0,0,1,3.62-2.9,11.28,11.28,0,1,0-1,17.28,9.89,9.89,0,0,1-3.28-3.28,6.72,6.72,0,1,1-3.45-12.48Zm9.83,17.2h4.56v-35H78.9ZM38.44,141.14a3.22,3.22,0,1,0,3.22,3.22h0a3.22,3.22,0,0,0-3.22-3.22ZM111.37,163a11.28,11.28,0,1,1-11.28-11.28h0A11.29,11.29,0,0,1,111.37,163Zm-4.56,0a6.72,6.72,0,1,0-6.72,6.72h0a6.72,6.72,0,0,0,6.72-6.71Zm29.6,0a11.28,11.28,0,1,1-11.28-11.28h0A11.3,11.3,0,0,1,136.41,163Zm-4.56,0a6.72,6.72,0,1,0-6.72,6.72h0a6.72,6.72,0,0,0,6.72-6.71Z"/></g></g></g></svg>