<svg xmlns="http://www.w3.org/2000/svg" viewBox="0 0 346.4 96.81"><defs><style>.cls-1{fill:#9bb3c4;}.cls-2{fill:#91e9ff;}</style></defs><g id="レイヤー_2" data-name="レイヤー 2"><g id="レイヤー_1-2" data-name="レイヤー 1"><g id="グループ_1289" data-name="グループ 1289"><g id="グループ_1288" data-name="グループ 1288"><path id="パス_361" data-name="パス 361" class="cls-1" d="M39.2,24.5A14.67,14.67,0,1,1,24.54,39.16,14.66,14.66,0,0,1,39.2,24.5m0-5.68A20.34,20.34,0,1,0,59.54,39.17h0A20.35,20.35,0,0,0,39.2,18.82Z"/><path id="パス_362" data-name="パス 362" class="cls-2" d="M66.9,58.91a5.63,5.63,0,0,1,0,8,39,39,0,0,1-21.54,11c-4.31,1.14-4.9,2.49-3.1,6,1.4,2.58,2.72,5.43,2.72,7a6,6,0,0,1-12,0c0-1.5,1.22-4.19,2.56-6.7h0c2.2-4.1,1.37-5.36-4.49-6.63h.05A39.17,39.17,0,0,1,6.39,17.73a9.31,9.31,0,0,0,8.86,7.06A27.93,27.93,0,0,0,59,58.91,5.62,5.62,0,0,1,66.9,58.91Zm0-47.45a39.22,39.22,0,0,0-55.41,0,5.63,5.63,0,0,0,8,8,27.93,27.93,0,0,1,43.7,34.12A9.3,9.3,0,0,1,72,60.59a39.24,39.24,0,0,0-5.1-49.13Z"/></g><path id="パス_363" data-name="パス 363" class="cls-1" d="M101,43.42a20.91,20.91,0,0,0,32,17.72,27.74,27.74,0,0,0,6.25,5.54,29,29,0,1,1,0-46.53A27.74,27.74,0,0,0,133,25.69a20.91,20.91,0,0,0-32,17.73Zm48.89,23.3h7.19v-37h-7.19Zm38-36.36a17.51,17.51,0,0,0-15.21,2.9V29.73h-7.18V47.5h0V66.72h7.18V47.5a10.6,10.6,0,0,1,8.74-10.41,24.39,24.39,0,0,1,6.47-6.73ZM346.4,47.5A17.75,17.75,0,0,1,318,61.75V83.56h-7.19V29.73H318v3.53A17.75,17.75,0,0,1,346.4,47.5Zm-7.19,0a10.59,10.59,0,1,0-10.59,10.59h0A10.59,10.59,0,0,0,339.21,47.5ZM201.75,39.61a10.53,10.53,0,0,1,6.4,2.18,15.5,15.5,0,0,1,5.7-4.58,17.78,17.78,0,1,0-1.5,27.23,15.58,15.58,0,0,1-5.17-5.17,10.58,10.58,0,1,1-5.43-19.66Zm15.49,27.11h7.18V11.59h-7.18ZM153.48,15.78a5.08,5.08,0,1,0,5.08,5.08h0a5.07,5.07,0,0,0-5.07-5.07ZM268.41,50.2a17.78,17.78,0,1,1-17.78-17.77h0A17.79,17.79,0,0,1,268.41,50.2Zm-7.19,0a10.59,10.59,0,1,0-10.59,10.59h0A10.59,10.59,0,0,0,261.22,50.2Zm46.64,0a17.78,17.78,0,1,1-17.78-17.77h0A17.79,17.79,0,0,1,307.86,50.2Zm-7.18,0a10.6,10.6,0,1,0-10.59,10.6,10.59,10.59,0,0,0,10.59-10.6Z"/></g></g></g></svg>