<svg xmlns="http://www.w3.org/2000/svg" viewBox="0 0 130.02 131.99"><defs><style>.cls-1{fill:#fff;}.cls-2{fill:none;}.cls-3{fill:#9bb3c4;}</style></defs><g id="レイヤー_2" data-name="レイヤー 2"><g id="レイヤー_1-2" data-name="レイヤー 1"><g id="グループ_1300" data-name="グループ 1300"><ellipse id="楕円形_23" data-name="楕円形 23" class="cls-1" cx="65.01" cy="65.99" rx="65.01" ry="65.99"/><g id="グループ_1053" data-name="グループ 1053"><rect id="長方形_398" data-name="長方形 398" class="cls-2" x="31.98" y="33.97" width="65.33" height="65.33"/><g id="グループ_1052" data-name="グループ 1052"><path id="パス_181" data-name="パス 181" class="cls-3" d="M92.27,44.45H37a1.88,1.88,0,0,0-1.88,1.88V57.55l29.5,9.26,29.49-9.26V46.33A1.88,1.88,0,0,0,92.27,44.45Z"/><path id="パス_182" data-name="パス 182" class="cls-3" d="M64.65,70.05a2,2,0,0,1-.48-.07l-29-9.11V86.94A1.88,1.88,0,0,0,37,88.82H92.27a1.88,1.88,0,0,0,1.87-1.88V60.87L65.12,70A1.84,1.84,0,0,1,64.65,70.05Z"/></g></g></g></g></g></svg>