<svg xmlns="http://www.w3.org/2000/svg" xmlns:xlink="http://www.w3.org/1999/xlink" viewBox="0 0 126.49 140.96"><defs><style>.cls-1{fill:none;}.cls-2{clip-path:url(#clip-path);}.cls-3{fill:#91e9ff;}.cls-4{opacity:0.5;isolation:isolate;fill:url(#名称未設定グラデーション_2);}.cls-5{fill:#fff;}</style><clipPath id="clip-path" transform="translate(8.73 5.94)"><path class="cls-1" d="M60.37,103.79a52.22,52.22,0,1,0-19-.51h0c7.81,1.69,8.92,3.38,6,8.84h0c-1.78,3.34-3.41,6.93-3.41,8.92a8,8,0,0,0,16.06,0c0-2.07-1.75-5.87-3.62-9.32C53.92,107.1,54.68,105.3,60.37,103.79Z"/></clipPath><linearGradient id="名称未設定グラデーション_2" x1="-617.95" y1="643.75" x2="-617.23" y2="643.1" gradientTransform="matrix(89.32, 0, 0, -98.15, 55220.03, 63210.21)" gradientUnits="userSpaceOnUse"><stop offset="0" stop-color="#9bb3c4"/><stop offset="0.15" stop-color="#9bb3c4" stop-opacity="0.98"/><stop offset="0.29" stop-color="#9bb3c4" stop-opacity="0.92"/><stop offset="0.43" stop-color="#9bb3c4" stop-opacity="0.82"/><stop offset="0.57" stop-color="#9bb3c4" stop-opacity="0.68"/><stop offset="0.71" stop-color="#9bb3c4" stop-opacity="0.5"/><stop offset="0.85" stop-color="#9bb3c4" stop-opacity="0.28"/><stop offset="0.99" stop-color="#9bb3c4" stop-opacity="0.03"/><stop offset="1" stop-color="#9bb3c4" stop-opacity="0"/></linearGradient></defs><g id="レイヤー_2" data-name="レイヤー 2"><g id="レイヤー_1-2" data-name="レイヤー 1"><g id="グループ_1294" data-name="グループ 1294"><g id="グループ_1268" data-name="グループ 1268"><g class="cls-2"><g id="グループ_1267" data-name="グループ 1267"><rect id="長方形_521" data-name="長方形 521" class="cls-3" width="121.89" height="140.96"/><path id="パス_331" data-name="パス 331" class="cls-4" d="M76.07,19.72l41.7,41.7L61.22,117.88,28.45,85.1l1.76-64.33Z" transform="translate(8.73 5.94)"/><g id="グループ_1266" data-name="グループ 1266"><path id="パス_332" data-name="パス 332" class="cls-5" d="M62.8,73.81V86.17L77.26,71.7H64.91A2.12,2.12,0,0,0,62.8,73.81Z" transform="translate(8.73 5.94)"/><path id="パス_333" data-name="パス 333" class="cls-5" d="M73.27,18.57H31.17a4,4,0,0,0-4,4v59.6a4,4,0,0,0,4,4H60.79V73.81a4.11,4.11,0,0,1,4.11-4.1H77.26V22.57A4,4,0,0,0,73.27,18.57ZM69,65.87H35.48a1,1,0,0,1,0-2H69a1,1,0,0,1,0,2Zm0-6.36H35.48a1,1,0,0,1,0-2H69a1,1,0,0,1,0,2Zm0-6.36H35.48a1,1,0,0,1,0-2H69a1,1,0,0,1,0,2Zm1-8.87a1,1,0,0,1-1,1H35.48a1,1,0,0,1-1-1V26.75a1,1,0,0,1,1-1H69a1,1,0,0,1,1,1Z" transform="translate(8.73 5.94)"/></g></g></g></g></g></g></g></svg>