<svg xmlns="http://www.w3.org/2000/svg" xmlns:xlink="http://www.w3.org/1999/xlink" viewBox="0 0 126.44 140.96"><defs><style>.cls-1{fill:none;}.cls-2{clip-path:url(#clip-path);}.cls-3{fill:#91e9ff;}.cls-4{opacity:0.5;isolation:isolate;fill:url(#名称未設定グラデーション_2);}.cls-5{fill:#fff;}</style><clipPath id="clip-path" transform="translate(8.73 5.95)"><path class="cls-1" d="M60.37,103.78a52.18,52.18,0,1,0-19-.5h0c7.81,1.69,8.91,3.37,6,8.83h0c-1.78,3.35-3.41,6.93-3.41,8.93a8,8,0,0,0,16.06,0c0-2.07-1.75-5.87-3.62-9.32C53.91,107.1,54.68,105.3,60.37,103.78Z"/></clipPath><linearGradient id="名称未設定グラデーション_2" x1="-416.32" y1="666.78" x2="-415.66" y2="666.08" gradientTransform="matrix(98.26, 0, 0, -92.13, 40937.97, 61457.46)" gradientUnits="userSpaceOnUse"><stop offset="0" stop-color="#9bb3c4"/><stop offset="0.15" stop-color="#9bb3c4" stop-opacity="0.98"/><stop offset="0.29" stop-color="#9bb3c4" stop-opacity="0.92"/><stop offset="0.43" stop-color="#9bb3c4" stop-opacity="0.82"/><stop offset="0.57" stop-color="#9bb3c4" stop-opacity="0.68"/><stop offset="0.71" stop-color="#9bb3c4" stop-opacity="0.5"/><stop offset="0.85" stop-color="#9bb3c4" stop-opacity="0.28"/><stop offset="0.99" stop-color="#9bb3c4" stop-opacity="0.03"/><stop offset="1" stop-color="#9bb3c4" stop-opacity="0"/></linearGradient></defs><g id="レイヤー_2" data-name="レイヤー 2"><g id="レイヤー_1-2" data-name="レイヤー 1"><g id="グループ_1293" data-name="グループ 1293"><g id="グループ_1273" data-name="グループ 1273"><g class="cls-2"><g id="グループ_1272" data-name="グループ 1272"><rect id="長方形_523" data-name="長方形 523" class="cls-3" width="121.89" height="140.96"/><path id="パス_338" data-name="パス 338" class="cls-4" d="M76,27.1l41.7,41.7L64.1,112.89,31.32,80.11S7.69,49.74,27.1,30.31,76,27.1,76,27.1Z" transform="translate(8.73 5.95)"/><g id="WordPress"><g id="WordPress-2"><g id="グループ_1271" data-name="グループ 1271"><path id="パス_339" data-name="パス 339" class="cls-5" d="M76.68,27.9a34.65,34.65,0,0,0-54.74,7.67,1.22,1.22,0,0,0-.3.56,34.61,34.61,0,1,0,55-8.23ZM30.27,30.42A31,31,0,0,1,73,29.28a5.89,5.89,0,0,0-5.09,6.61c0,.22.07.43.12.65h0v0a5.43,5.43,0,0,0,.24.75c1.42,3.87,5.44,8,5.27,12.83C73.25,57.28,68,71.51,68,71.51L56.78,37.68c1.14,0,2.32-.09,3.52-.15a1.23,1.23,0,0,0-.14-2.45,155.49,155.49,0,0,1-17,0A1.22,1.22,0,1,0,43,37.52s1.29.09,3.37.16L51.42,51.4l-7,20.15L33.32,37.69c1,0,2.17-.09,3.38-.16a1.23,1.23,0,0,0-.14-2.45c-4.62.27-8,.29-10.3.26a31.57,31.57,0,0,1,4-4.92ZM21.18,52.37A30.94,30.94,0,0,1,23.72,40L38.28,80.12a31.12,31.12,0,0,1-17.1-27.75ZM43.76,82.24,53,55.63l9.57,26a31.34,31.34,0,0,1-18.8.59Zm30.4-7.93a31.2,31.2,0,0,1-5.39,4.33c3-8.85,10.13-29.52,10.84-31.89a23.25,23.25,0,0,0,.8-7.38,31.09,31.09,0,0,1-6.25,34.94Z" transform="translate(8.73 5.95)"/></g></g></g></g></g></g></g></g></g></svg>