<svg xmlns="http://www.w3.org/2000/svg" xmlns:xlink="http://www.w3.org/1999/xlink" viewBox="0 0 126.49 140.96"><defs><style>.cls-1{fill:none;}.cls-2{clip-path:url(#clip-path);}.cls-3{fill:#91e9ff;}.cls-4{opacity:0.5;isolation:isolate;fill:url(#名称未設定グラデーション_2);}.cls-5{fill:#fff;}</style><clipPath id="clip-path" transform="translate(8.73 5.95)"><path class="cls-1" d="M60.37,103.78a52.18,52.18,0,1,0-19-.5h0c7.81,1.69,8.91,3.37,6,8.83h0c-1.78,3.35-3.41,6.93-3.41,8.93a8,8,0,0,0,16.06,0c0-2.08-1.75-5.87-3.62-9.32C53.91,107.1,54.68,105.3,60.37,103.78Z"/></clipPath><linearGradient id="名称未設定グラデーション_2" x1="-816.7" y1="626.57" x2="-815.98" y2="625.92" gradientTransform="matrix(89.32, 0, 0, -98.15, 72972.22, 61524.34)" gradientUnits="userSpaceOnUse"><stop offset="0" stop-color="#9bb3c4"/><stop offset="0.15" stop-color="#9bb3c4" stop-opacity="0.98"/><stop offset="0.29" stop-color="#9bb3c4" stop-opacity="0.92"/><stop offset="0.43" stop-color="#9bb3c4" stop-opacity="0.82"/><stop offset="0.57" stop-color="#9bb3c4" stop-opacity="0.68"/><stop offset="0.71" stop-color="#9bb3c4" stop-opacity="0.5"/><stop offset="0.85" stop-color="#9bb3c4" stop-opacity="0.28"/><stop offset="0.99" stop-color="#9bb3c4" stop-opacity="0.03"/><stop offset="1" stop-color="#9bb3c4" stop-opacity="0"/></linearGradient></defs><g id="レイヤー_2" data-name="レイヤー 2"><g id="レイヤー_1-2" data-name="レイヤー 1"><g id="グループ_1295" data-name="グループ 1295"><g id="グループ_1270" data-name="グループ 1270"><g class="cls-2"><g id="グループ_1269" data-name="グループ 1269"><rect id="長方形_522" data-name="長方形 522" class="cls-3" width="121.89" height="140.96"/><path id="パス_335" data-name="パス 335" class="cls-4" d="M76.06,19.72l41.7,41.7L61.22,117.87,28.45,85.1l1.76-3.63V20.77Z" transform="translate(8.73 5.95)"/><path id="パス_336" data-name="パス 336" class="cls-5" d="M73.26,65.92H31.17a4,4,0,0,0-4,4V82.1a4,4,0,0,0,4,4h42.1a4,4,0,0,0,4-4V69.92A4,4,0,0,0,73.26,65.92ZM34.45,78.47A2.45,2.45,0,1,1,36.9,76h0A2.45,2.45,0,0,1,34.45,78.47Zm37-1.52H42.89a.94.94,0,0,1,0-1.88h28.6a.94.94,0,0,1,0,1.88Zm1.77-58.33H31.17a4,4,0,0,0-4,4V34.81a4,4,0,0,0,4,4h42.1a4,4,0,0,0,4-4V22.62A4,4,0,0,0,73.26,18.62ZM34.45,31.17a2.45,2.45,0,1,1,2.45-2.45h0A2.45,2.45,0,0,1,34.45,31.17Zm37-1.52H42.89a.94.94,0,1,1,0-1.88h28.6a.94.94,0,0,1,0,1.88Zm1.77,12.47H31.17a4,4,0,0,0-4,4V58.3a4,4,0,0,0,4,4h42.1a4,4,0,0,0,4-4V46.12A4,4,0,0,0,73.26,42.12ZM34.45,54.66a2.45,2.45,0,1,1,2.45-2.45h0A2.45,2.45,0,0,1,34.45,54.66Zm37-1.51H42.89a.95.95,0,0,1,0-1.89h28.6a.95.95,0,0,1,0,1.89Z" transform="translate(8.73 5.95)"/></g></g></g></g></g></g></svg>