<svg xmlns="http://www.w3.org/2000/svg" viewBox="0 0 130.02 131.99"><defs><style>.cls-1{fill:#fff;}.cls-2{fill:none;}.cls-3{fill:#9bb3c4;}</style></defs><g id="レイヤー_2" data-name="レイヤー 2"><g id="レイヤー_1-2" data-name="レイヤー 1"><g id="グループ_1298" data-name="グループ 1298"><ellipse id="楕円形_21" data-name="楕円形 21" class="cls-1" cx="65.01" cy="65.99" rx="65.01" ry="65.99"/><g id="グループ_1051" data-name="グループ 1051"><rect id="長方形_397" data-name="長方形 397" class="cls-2" x="32.41" y="33.97" width="65.33" height="65.33"/><path id="パス_180" data-name="パス 180" class="cls-3" d="M92.31,48.9a22.78,22.78,0,0,1-5.54,1.58c.89-.15,2.21-1.78,2.73-2.42a10.43,10.43,0,0,0,1.85-3.36c.05-.1.08-.22,0-.29a.35.35,0,0,0-.3,0A28.22,28.22,0,0,1,84.46,47a.44.44,0,0,1-.46-.12,4.53,4.53,0,0,0-.57-.59,11.49,11.49,0,0,0-3.19-2,11.05,11.05,0,0,0-4.89-.79A11.89,11.89,0,0,0,67,47.87a11.59,11.59,0,0,0-2.23,4.48,12.1,12.1,0,0,0-.12,4.72c0,.27,0,.3-.23.27-9-1.35-16.54-4.58-22.62-11.52-.26-.3-.41-.3-.62,0-2.67,4-1.38,10.4,2,13.55.44.42.9.84,1.39,1.23a11.48,11.48,0,0,1-4.36-1.23c-.27-.16-.4-.07-.42.23a6.3,6.3,0,0,0,.07,1.3,11.57,11.57,0,0,0,7.15,9.24,6.1,6.1,0,0,0,1.45.45,13.09,13.09,0,0,1-4.28.13c-.31-.06-.44.1-.31.39a12,12,0,0,0,9,7.54c.41.07.82.07,1.23.16,0,0,0,0-.07.08-1,1.54-4.52,2.68-6.15,3.25a21.93,21.93,0,0,1-9.33,1.2c-.5-.08-.61-.07-.74,0s0,.19.14.33c.64.42,1.29.79,1.94,1.15A30.82,30.82,0,0,0,46,87.35c11.21,3.1,23.84.82,32.25-7.54,6.61-6.57,8.93-15.62,8.93-24.69,0-.36.42-.55.67-.74a21.78,21.78,0,0,0,4.37-4.57,1.35,1.35,0,0,0,.27-.87v0C92.52,48.76,92.53,48.81,92.31,48.9Z"/></g></g></g></g></svg>